<?xml version="1.0" encoding="utf-8" standalone="no"?>
<!DOCTYPE svg PUBLIC "-//W3C//DTD SVG 1.1//EN"
  "http://www.w3.org/Graphics/SVG/1.1/DTD/svg11.dtd">
<svg xmlns:xlink="http://www.w3.org/1999/xlink" width="374.4pt" height="201.6pt" viewBox="0 0 374.4 201.6" xmlns="http://www.w3.org/2000/svg" version="1.1">
 <metadata>
  <rdf:RDF xmlns:dc="http://purl.org/dc/elements/1.1/" xmlns:cc="http://creativecommons.org/ns#" xmlns:rdf="http://www.w3.org/1999/02/22-rdf-syntax-ns#">
   <cc:Work>
    <dc:type rdf:resource="http://purl.org/dc/dcmitype/StillImage"/>
    <dc:date>2025-12-18T12:05:56.085885</dc:date>
    <dc:format>image/svg+xml</dc:format>
    <dc:creator>
     <cc:Agent>
      <dc:title>Matplotlib v3.6.3, https://matplotlib.org/</dc:title>
     </cc:Agent>
    </dc:creator>
   </cc:Work>
  </rdf:RDF>
 </metadata>
 <defs>
  <style type="text/css">*{stroke-linejoin: round; stroke-linecap: butt}</style>
 </defs>
 <g id="figure_1">
  <g id="patch_1">
   <path d="M 0 201.6 
L 374.4 201.6 
L 374.4 0 
L 0 0 
L 0 201.6 
z
" style="fill: none"/>
  </g>
  <g id="axes_1">
   <g id="patch_2">
    <path d="M 47.580176 154.019855 
L 351.561065 154.019855 
L 351.561065 15.685173 
L 47.580176 15.685173 
L 47.580176 154.019855 
z
" style="fill: none"/>
   </g>
   <g id="matplotlib.axis_1">
    <g id="xtick_1">
     <g id="line2d_1">
      <defs>
       <path id="m4f4047ae08" d="M 0 0 
L 0 3.5 
" style="stroke: #000000; stroke-width: 0.8"/>
      </defs>
      <g>
       <use xlink:href="#m4f4047ae08" x="47.580176" y="154.019855" style="stroke: #000000; stroke-width: 0.8"/>
      </g>
     </g>
     <g id="text_1">
      <!-- $0$ -->
      <g transform="translate(44.840442 168.630201) scale(0.11 -0.11)">
       <defs>
        <path id="CMR17-30" d="M 2688 2038 
C 2688 2430 2682 3099 2413 3613 
C 2176 4063 1798 4224 1466 4224 
C 1158 4224 768 4082 525 3620 
C 269 3137 243 2539 243 2038 
C 243 1671 250 1112 448 623 
C 723 -39 1216 -128 1466 -128 
C 1760 -128 2208 -7 2470 604 
C 2662 1048 2688 1568 2688 2038 
z
M 1466 -26 
C 1056 -26 813 328 723 816 
C 653 1196 653 1749 653 2109 
C 653 2604 653 3015 736 3407 
C 858 3954 1216 4121 1466 4121 
C 1728 4121 2067 3947 2189 3420 
C 2272 3054 2278 2623 2278 2109 
C 2278 1691 2278 1176 2202 797 
C 2067 96 1690 -26 1466 -26 
z
" transform="scale(0.015625)"/>
       </defs>
       <use xlink:href="#CMR17-30" transform="scale(0.996264)"/>
      </g>
     </g>
    </g>
    <g id="xtick_2">
     <g id="line2d_2">
      <g>
       <use xlink:href="#m4f4047ae08" x="123.575398" y="154.019855" style="stroke: #000000; stroke-width: 0.8"/>
      </g>
     </g>
     <g id="text_2">
      <!-- $675$ -->
      <g transform="translate(115.356197 168.630201) scale(0.11 -0.11)">
       <defs>
        <path id="CMR17-36" d="M 678 2198 
C 678 3712 1395 4076 1811 4076 
C 1946 4076 2272 4049 2400 3782 
C 2298 3782 2106 3782 2106 3558 
C 2106 3385 2246 3328 2336 3328 
C 2394 3328 2566 3353 2566 3571 
C 2566 3987 2246 4224 1805 4224 
C 1043 4224 243 3411 243 2011 
C 243 257 966 -128 1478 -128 
C 2099 -128 2688 431 2688 1295 
C 2688 2101 2170 2688 1517 2688 
C 1126 2688 838 2430 678 1979 
L 678 2198 
z
M 1478 25 
C 691 25 691 1212 691 1450 
C 691 1914 909 2585 1504 2585 
C 1613 2585 1926 2585 2138 2140 
C 2253 1889 2253 1624 2253 1302 
C 2253 954 2253 696 2118 438 
C 1978 173 1773 25 1478 25 
z
" transform="scale(0.015625)"/>
        <path id="CMR17-37" d="M 2886 3955 
L 2886 4096 
L 1382 4096 
C 634 4096 621 4166 595 4288 
L 480 4288 
L 294 3104 
L 410 3104 
C 429 3226 474 3552 550 3673 
C 589 3724 1062 3724 1171 3724 
L 2579 3724 
L 1869 2670 
C 1395 1961 1069 1003 1069 166 
C 1069 89 1069 -128 1299 -128 
C 1530 -128 1530 89 1530 172 
L 1530 466 
C 1530 1514 1709 2204 2003 2644 
L 2886 3955 
z
" transform="scale(0.015625)"/>
        <path id="CMR17-35" d="M 730 3750 
C 794 3724 1056 3641 1325 3641 
C 1920 3641 2246 3961 2432 4140 
C 2432 4191 2432 4224 2394 4224 
C 2387 4224 2374 4224 2323 4198 
C 2099 4102 1837 4032 1517 4032 
C 1325 4032 1037 4055 723 4191 
C 653 4224 640 4224 634 4224 
C 602 4224 595 4217 595 4090 
L 595 2231 
C 595 2113 595 2080 659 2080 
C 691 2080 704 2093 736 2139 
C 941 2435 1222 2560 1542 2560 
C 1766 2560 2246 2415 2246 1293 
C 2246 1087 2246 716 2054 422 
C 1894 159 1645 25 1370 25 
C 947 25 518 319 403 812 
C 429 806 480 793 506 793 
C 589 793 749 838 749 1036 
C 749 1209 627 1280 506 1280 
C 358 1280 262 1190 262 1011 
C 262 454 704 -128 1382 -128 
C 2042 -128 2669 441 2669 1267 
C 2669 2054 2170 2662 1549 2662 
C 1222 2662 947 2540 730 2304 
L 730 3750 
z
" transform="scale(0.015625)"/>
       </defs>
       <use xlink:href="#CMR17-36" transform="scale(0.996264)"/>
       <use xlink:href="#CMR17-37" transform="translate(45.690477 0) scale(0.996264)"/>
       <use xlink:href="#CMR17-35" transform="translate(91.380954 0) scale(0.996264)"/>
      </g>
     </g>
    </g>
    <g id="xtick_3">
     <g id="line2d_3">
      <g>
       <use xlink:href="#m4f4047ae08" x="199.570621" y="154.019855" style="stroke: #000000; stroke-width: 0.8"/>
      </g>
     </g>
     <g id="text_3">
      <!-- $1350$ -->
      <g transform="translate(188.611686 168.630201) scale(0.11 -0.11)">
       <defs>
        <path id="CMR17-31" d="M 1702 4083 
C 1702 4217 1696 4224 1606 4224 
C 1357 3927 979 3833 621 3820 
C 602 3820 570 3820 563 3808 
C 557 3795 557 3782 557 3648 
C 755 3648 1088 3686 1344 3839 
L 1344 467 
C 1344 243 1331 166 781 166 
L 589 166 
L 589 0 
C 896 6 1216 12 1523 12 
C 1830 12 2150 6 2458 0 
L 2458 166 
L 2266 166 
C 1715 166 1702 236 1702 467 
L 1702 4083 
z
" transform="scale(0.015625)"/>
        <path id="CMR17-33" d="M 1414 2176 
C 1984 2176 2234 1673 2234 1094 
C 2234 322 1824 25 1453 25 
C 1114 25 563 193 390 691 
C 422 678 454 678 486 678 
C 640 678 755 780 755 947 
C 755 1132 614 1216 486 1216 
C 378 1216 211 1164 211 927 
C 211 335 787 -128 1466 -128 
C 2176 -128 2720 432 2720 1087 
C 2720 1718 2208 2176 1600 2246 
C 2086 2347 2554 2776 2554 3353 
C 2554 3856 2048 4224 1472 4224 
C 890 4224 378 3862 378 3347 
C 378 3123 544 3084 627 3084 
C 762 3084 877 3167 877 3334 
C 877 3500 762 3584 627 3584 
C 602 3584 570 3584 544 3571 
C 730 3999 1235 4076 1459 4076 
C 1683 4076 2106 3966 2106 3347 
C 2106 3167 2080 2851 1862 2574 
C 1670 2329 1453 2316 1242 2297 
C 1210 2297 1062 2284 1037 2284 
C 992 2278 966 2272 966 2227 
C 966 2182 973 2176 1101 2176 
L 1414 2176 
z
" transform="scale(0.015625)"/>
       </defs>
       <use xlink:href="#CMR17-31" transform="scale(0.996264)"/>
       <use xlink:href="#CMR17-33" transform="translate(45.690477 0) scale(0.996264)"/>
       <use xlink:href="#CMR17-35" transform="translate(91.380954 0) scale(0.996264)"/>
       <use xlink:href="#CMR17-30" transform="translate(137.071431 0) scale(0.996264)"/>
      </g>
     </g>
    </g>
    <g id="xtick_4">
     <g id="line2d_4">
      <g>
       <use xlink:href="#m4f4047ae08" x="275.565843" y="154.019855" style="stroke: #000000; stroke-width: 0.8"/>
      </g>
     </g>
     <g id="text_4">
      <!-- $2025$ -->
      <g transform="translate(264.606909 168.630201) scale(0.11 -0.11)">
       <defs>
        <path id="CMR17-32" d="M 2669 990 
L 2554 990 
C 2490 537 2438 460 2413 422 
C 2381 371 1920 371 1830 371 
L 602 371 
C 832 620 1280 1073 1824 1596 
C 2214 1966 2669 2400 2669 3033 
C 2669 3788 2067 4224 1395 4224 
C 691 4224 262 3603 262 3027 
C 262 2777 448 2745 525 2745 
C 589 2745 781 2783 781 3007 
C 781 3206 614 3264 525 3264 
C 486 3264 448 3257 422 3244 
C 544 3788 915 4057 1306 4057 
C 1862 4057 2227 3616 2227 3033 
C 2227 2477 1901 1998 1536 1583 
L 262 147 
L 262 0 
L 2515 0 
L 2669 990 
z
" transform="scale(0.015625)"/>
       </defs>
       <use xlink:href="#CMR17-32" transform="scale(0.996264)"/>
       <use xlink:href="#CMR17-30" transform="translate(45.690477 0) scale(0.996264)"/>
       <use xlink:href="#CMR17-32" transform="translate(91.380954 0) scale(0.996264)"/>
       <use xlink:href="#CMR17-35" transform="translate(137.071431 0) scale(0.996264)"/>
      </g>
     </g>
    </g>
    <g id="xtick_5">
     <g id="line2d_5">
      <g>
       <use xlink:href="#m4f4047ae08" x="351.561065" y="154.019855" style="stroke: #000000; stroke-width: 0.8"/>
      </g>
     </g>
     <g id="text_5">
      <!-- $2700$ -->
      <g transform="translate(340.602131 168.630201) scale(0.11 -0.11)">
       <use xlink:href="#CMR17-32" transform="scale(0.996264)"/>
       <use xlink:href="#CMR17-37" transform="translate(45.690477 0) scale(0.996264)"/>
       <use xlink:href="#CMR17-30" transform="translate(91.380954 0) scale(0.996264)"/>
       <use xlink:href="#CMR17-30" transform="translate(137.071431 0) scale(0.996264)"/>
      </g>
     </g>
    </g>
    <g id="xtick_6">
     <g id="line2d_6">
      <defs>
       <path id="m1750f99646" d="M 0 0 
L 0 2 
" style="stroke: #000000; stroke-width: 0.6"/>
      </defs>
      <g>
       <use xlink:href="#m1750f99646" x="66.578981" y="154.019855" style="stroke: #000000; stroke-width: 0.6"/>
      </g>
     </g>
    </g>
    <g id="xtick_7">
     <g id="line2d_7">
      <g>
       <use xlink:href="#m1750f99646" x="85.577787" y="154.019855" style="stroke: #000000; stroke-width: 0.6"/>
      </g>
     </g>
    </g>
    <g id="xtick_8">
     <g id="line2d_8">
      <g>
       <use xlink:href="#m1750f99646" x="104.576593" y="154.019855" style="stroke: #000000; stroke-width: 0.6"/>
      </g>
     </g>
    </g>
    <g id="xtick_9">
     <g id="line2d_9">
      <g>
       <use xlink:href="#m1750f99646" x="142.574204" y="154.019855" style="stroke: #000000; stroke-width: 0.6"/>
      </g>
     </g>
    </g>
    <g id="xtick_10">
     <g id="line2d_10">
      <g>
       <use xlink:href="#m1750f99646" x="161.573009" y="154.019855" style="stroke: #000000; stroke-width: 0.6"/>
      </g>
     </g>
    </g>
    <g id="xtick_11">
     <g id="line2d_11">
      <g>
       <use xlink:href="#m1750f99646" x="180.571815" y="154.019855" style="stroke: #000000; stroke-width: 0.6"/>
      </g>
     </g>
    </g>
    <g id="xtick_12">
     <g id="line2d_12">
      <g>
       <use xlink:href="#m1750f99646" x="218.569426" y="154.019855" style="stroke: #000000; stroke-width: 0.6"/>
      </g>
     </g>
    </g>
    <g id="xtick_13">
     <g id="line2d_13">
      <g>
       <use xlink:href="#m1750f99646" x="237.568232" y="154.019855" style="stroke: #000000; stroke-width: 0.6"/>
      </g>
     </g>
    </g>
    <g id="xtick_14">
     <g id="line2d_14">
      <g>
       <use xlink:href="#m1750f99646" x="256.567037" y="154.019855" style="stroke: #000000; stroke-width: 0.6"/>
      </g>
     </g>
    </g>
    <g id="xtick_15">
     <g id="line2d_15">
      <g>
       <use xlink:href="#m1750f99646" x="294.564649" y="154.019855" style="stroke: #000000; stroke-width: 0.6"/>
      </g>
     </g>
    </g>
    <g id="xtick_16">
     <g id="line2d_16">
      <g>
       <use xlink:href="#m1750f99646" x="313.563454" y="154.019855" style="stroke: #000000; stroke-width: 0.6"/>
      </g>
     </g>
    </g>
    <g id="xtick_17">
     <g id="line2d_17">
      <g>
       <use xlink:href="#m1750f99646" x="332.56226" y="154.019855" style="stroke: #000000; stroke-width: 0.6"/>
      </g>
     </g>
    </g>
    <g id="text_6">
     <!-- Time (s) -->
     <g transform="translate(178.839988 186.980274) scale(0.11 -0.11)">
      <defs>
       <path id="CMR17-54" d="M 3981 4332 
L 288 4332 
L 179 2924 
L 294 2924 
C 378 3981 467 4166 1453 4166 
C 1568 4166 1754 4166 1805 4159 
C 1926 4140 1926 4064 1926 3917 
L 1926 465 
C 1926 236 1907 166 1376 166 
L 1197 166 
L 1197 0 
C 1504 6 1824 12 2138 12 
C 2451 12 2771 6 3078 0 
L 3078 166 
L 2899 166 
C 2368 166 2349 236 2349 465 
L 2349 3917 
C 2349 4057 2349 4134 2464 4159 
C 2515 4166 2701 4166 2816 4166 
C 3795 4166 3891 3981 3974 2924 
L 4090 2924 
L 3981 4332 
z
" transform="scale(0.015625)"/>
       <path id="CMR17-69" d="M 992 3961 
C 992 4102 877 4224 730 4224 
C 589 4224 467 4108 467 3961 
C 467 3820 582 3699 730 3699 
C 870 3699 992 3814 992 3961 
z
M 243 2745 
L 243 2579 
C 602 2579 653 2540 653 2231 
L 653 443 
C 653 198 627 166 218 166 
L 218 0 
C 371 12 646 12 806 12 
C 960 12 1222 12 1370 0 
L 1370 166 
C 992 166 979 205 979 436 
L 979 2816 
L 243 2745 
z
" transform="scale(0.015625)"/>
       <path id="CMR17-6d" d="M 4326 1954 
C 4326 2276 4269 2816 3507 2816 
C 3072 2816 2771 2520 2656 2173 
L 2650 2173 
C 2573 2700 2195 2816 1837 2816 
C 1331 2816 1069 2424 973 2166 
L 966 2166 
L 966 2816 
L 211 2745 
L 211 2578 
C 589 2578 646 2540 646 2231 
L 646 443 
C 646 198 621 166 211 166 
L 211 0 
C 365 12 646 12 813 12 
C 979 12 1267 12 1421 0 
L 1421 166 
C 1011 166 986 192 986 443 
L 986 1678 
C 986 2269 1344 2713 1792 2713 
C 2266 2713 2317 2289 2317 1980 
L 2317 443 
C 2317 198 2291 166 1882 166 
L 1882 0 
C 2035 12 2317 12 2483 12 
C 2650 12 2938 12 3091 0 
L 3091 166 
C 2682 166 2656 192 2656 443 
L 2656 1678 
C 2656 2269 3014 2713 3462 2713 
C 3936 2713 3987 2289 3987 1980 
L 3987 443 
C 3987 198 3962 166 3552 166 
L 3552 0 
C 3706 12 3987 12 4154 12 
C 4320 12 4608 12 4762 0 
L 4762 166 
C 4352 166 4326 192 4326 443 
L 4326 1954 
z
" transform="scale(0.015625)"/>
       <path id="CMR17-65" d="M 2438 1503 
C 2464 1529 2464 1542 2464 1606 
C 2464 2251 2118 2816 1389 2816 
C 710 2816 173 2175 173 1394 
C 173 554 781 -64 1459 -64 
C 2176 -64 2458 619 2458 755 
C 2458 800 2419 800 2406 800 
C 2362 800 2355 787 2330 709 
C 2189 270 1837 51 1504 51 
C 1229 51 954 206 781 490 
C 582 819 582 1200 582 1503 
L 2438 1503 
z
M 589 1600 
C 634 2511 1126 2713 1382 2713 
C 1818 2713 2112 2308 2118 1600 
L 589 1600 
z
" transform="scale(0.015625)"/>
       <path id="CMR17-28" d="M 1958 -1562 
C 1958 -1556 1958 -1543 1939 -1524 
C 1645 -1223 858 -403 858 1596 
C 858 3595 1632 4408 1946 4729 
C 1946 4735 1958 4748 1958 4767 
C 1958 4787 1939 4800 1914 4800 
C 1843 4800 1299 4325 986 3620 
C 666 2909 576 2218 576 1603 
C 576 1141 621 360 1005 -467 
C 1312 -1133 1837 -1600 1914 -1600 
C 1946 -1600 1958 -1588 1958 -1562 
z
" transform="scale(0.015625)"/>
       <path id="CMR17-73" d="M 1978 2688 
C 1978 2803 1971 2809 1933 2809 
C 1907 2809 1901 2803 1824 2707 
C 1805 2681 1747 2617 1728 2592 
C 1523 2809 1235 2816 1126 2816 
C 416 2816 160 2444 160 2073 
C 160 1497 813 1363 998 1324 
C 1402 1241 1542 1216 1677 1100 
C 1760 1024 1901 883 1901 652 
C 1901 384 1747 38 1158 38 
C 602 38 403 460 288 1024 
C 269 1113 269 1120 218 1120 
C 166 1120 160 1113 160 985 
L 160 64 
C 160 -52 166 -58 205 -58 
C 237 -58 243 -52 275 0 
C 314 57 410 211 448 275 
C 576 102 800 -64 1158 -64 
C 1792 -64 2131 281 2131 780 
C 2131 1107 1958 1280 1875 1356 
C 1683 1555 1459 1600 1190 1651 
C 838 1728 390 1817 390 2208 
C 390 2374 480 2726 1126 2726 
C 1811 2726 1850 2086 1862 1881 
C 1869 1849 1901 1843 1920 1843 
C 1978 1843 1978 1862 1978 1971 
L 1978 2688 
z
" transform="scale(0.015625)"/>
       <path id="CMR17-29" d="M 1683 1596 
C 1683 2057 1638 2839 1254 3665 
C 947 4332 422 4800 346 4800 
C 326 4800 301 4793 301 4761 
C 301 4748 307 4742 314 4729 
C 621 4408 1402 3595 1402 1603 
C 1402 -396 627 -1210 314 -1530 
C 307 -1543 301 -1549 301 -1562 
C 301 -1594 326 -1600 346 -1600 
C 416 -1600 960 -1127 1274 -422 
C 1594 289 1683 981 1683 1596 
z
" transform="scale(0.015625)"/>
      </defs>
      <use xlink:href="#CMR17-54" transform="scale(0.996264)"/>
      <use xlink:href="#CMR17-69" transform="translate(66.509881 0) scale(0.996264)"/>
      <use xlink:href="#CMR17-6d" transform="translate(91.380939 0) scale(0.996264)"/>
      <use xlink:href="#CMR17-65" transform="translate(168.300529 0) scale(0.996264)"/>
      <use xlink:href="#CMR17-28" transform="translate(238.862156 0) scale(0.996264)"/>
      <use xlink:href="#CMR17-73" transform="translate(274.142924 0) scale(0.996264)"/>
      <use xlink:href="#CMR17-29" transform="translate(309.944261 0) scale(0.996264)"/>
     </g>
    </g>
   </g>
   <g id="matplotlib.axis_2">
    <g id="ytick_1">
     <g id="line2d_18">
      <defs>
       <path id="mbd9fb2cc60" d="M 0 0 
L -3.5 0 
" style="stroke: #000000; stroke-width: 0.8"/>
      </defs>
      <g>
       <use xlink:href="#mbd9fb2cc60" x="47.580176" y="154.019855" style="stroke: #000000; stroke-width: 0.8"/>
      </g>
     </g>
     <g id="text_7">
      <!-- $0$ -->
      <g transform="translate(35.100709 157.825028) scale(0.11 -0.11)">
       <use xlink:href="#CMR17-30" transform="scale(0.996264)"/>
      </g>
     </g>
    </g>
    <g id="ytick_2">
     <g id="line2d_19">
      <g>
       <use xlink:href="#mbd9fb2cc60" x="47.580176" y="130.964074" style="stroke: #000000; stroke-width: 0.8"/>
      </g>
     </g>
     <g id="text_8">
      <!-- $5$ -->
      <g transform="translate(35.100709 134.769248) scale(0.11 -0.11)">
       <use xlink:href="#CMR17-35" transform="scale(0.996264)"/>
      </g>
     </g>
    </g>
    <g id="ytick_3">
     <g id="line2d_20">
      <g>
       <use xlink:href="#mbd9fb2cc60" x="47.580176" y="107.908294" style="stroke: #000000; stroke-width: 0.8"/>
      </g>
     </g>
     <g id="text_9">
      <!-- $9$ -->
      <g transform="translate(35.100709 111.713467) scale(0.11 -0.11)">
       <defs>
        <path id="CMR17-39" d="M 2253 1871 
C 2253 448 1670 25 1190 25 
C 1043 25 685 43 538 281 
C 704 256 826 345 826 505 
C 826 678 685 736 595 736 
C 538 736 365 710 365 492 
C 365 68 742 -128 1203 -128 
C 1939 -128 2688 665 2688 2090 
C 2688 3857 1971 4224 1485 4224 
C 851 4224 243 3664 243 2800 
C 243 2000 762 1408 1414 1408 
C 1952 1408 2189 1910 2253 2122 
L 2253 1871 
z
M 1427 1510 
C 1254 1510 1011 1542 813 1929 
C 678 2181 678 2477 678 2793 
C 678 3174 678 3438 858 3722 
C 947 3857 1114 4076 1485 4076 
C 2240 4076 2240 2909 2240 2651 
C 2240 2193 2035 1510 1427 1510 
z
" transform="scale(0.015625)"/>
       </defs>
       <use xlink:href="#CMR17-39" transform="scale(0.996264)"/>
      </g>
     </g>
    </g>
    <g id="ytick_4">
     <g id="line2d_21">
      <g>
       <use xlink:href="#mbd9fb2cc60" x="47.580176" y="84.852514" style="stroke: #000000; stroke-width: 0.8"/>
      </g>
     </g>
     <g id="text_10">
      <!-- $14$ -->
      <g transform="translate(29.621241 88.657687) scale(0.11 -0.11)">
       <defs>
        <path id="CMR17-34" d="M 2150 4147 
C 2150 4281 2144 4288 2029 4288 
L 128 1254 
L 128 1088 
L 1779 1088 
L 1779 460 
C 1779 230 1766 166 1318 166 
L 1197 166 
L 1197 0 
C 1402 12 1747 12 1965 12 
C 2182 12 2528 12 2733 0 
L 2733 166 
L 2611 166 
C 2163 166 2150 230 2150 460 
L 2150 1088 
L 2803 1088 
L 2803 1254 
L 2150 1254 
L 2150 4147 
z
M 1798 3723 
L 1798 1254 
L 256 1254 
L 1798 3723 
z
" transform="scale(0.015625)"/>
       </defs>
       <use xlink:href="#CMR17-31" transform="scale(0.996264)"/>
       <use xlink:href="#CMR17-34" transform="translate(45.690477 0) scale(0.996264)"/>
      </g>
     </g>
    </g>
    <g id="ytick_5">
     <g id="line2d_22">
      <g>
       <use xlink:href="#mbd9fb2cc60" x="47.580176" y="61.796734" style="stroke: #000000; stroke-width: 0.8"/>
      </g>
     </g>
     <g id="text_11">
      <!-- $19$ -->
      <g transform="translate(29.621241 65.601907) scale(0.11 -0.11)">
       <use xlink:href="#CMR17-31" transform="scale(0.996264)"/>
       <use xlink:href="#CMR17-39" transform="translate(45.690477 0) scale(0.996264)"/>
      </g>
     </g>
    </g>
    <g id="ytick_6">
     <g id="line2d_23">
      <g>
       <use xlink:href="#mbd9fb2cc60" x="47.580176" y="38.740954" style="stroke: #000000; stroke-width: 0.8"/>
      </g>
     </g>
     <g id="text_12">
      <!-- $23$ -->
      <g transform="translate(29.621241 42.546127) scale(0.11 -0.11)">
       <use xlink:href="#CMR17-32" transform="scale(0.996264)"/>
       <use xlink:href="#CMR17-33" transform="translate(45.690477 0) scale(0.996264)"/>
      </g>
     </g>
    </g>
    <g id="ytick_7">
     <g id="line2d_24">
      <g>
       <use xlink:href="#mbd9fb2cc60" x="47.580176" y="15.685173" style="stroke: #000000; stroke-width: 0.8"/>
      </g>
     </g>
     <g id="text_13">
      <!-- $28$ -->
      <g transform="translate(29.621241 19.490347) scale(0.11 -0.11)">
       <defs>
        <path id="CMR17-38" d="M 1741 2289 
C 2144 2494 2554 2803 2554 3298 
C 2554 3884 1990 4224 1472 4224 
C 890 4224 378 3800 378 3215 
C 378 3054 416 2777 666 2533 
C 730 2469 998 2276 1171 2154 
C 883 2006 211 1652 211 945 
C 211 282 838 -128 1459 -128 
C 2144 -128 2720 366 2720 1022 
C 2720 1607 2330 1877 2074 2051 
L 1741 2289 
z
M 902 2855 
C 851 2887 595 3086 595 3388 
C 595 3781 998 4076 1459 4076 
C 1965 4076 2336 3716 2336 3298 
C 2336 2700 1670 2359 1638 2359 
C 1632 2359 1626 2359 1574 2398 
L 902 2855 
z
M 2080 1536 
C 2176 1466 2483 1253 2483 861 
C 2483 385 2010 25 1472 25 
C 890 25 448 443 448 951 
C 448 1459 838 1884 1280 2083 
L 2080 1536 
z
" transform="scale(0.015625)"/>
       </defs>
       <use xlink:href="#CMR17-32" transform="scale(0.996264)"/>
       <use xlink:href="#CMR17-38" transform="translate(45.690477 0) scale(0.996264)"/>
      </g>
     </g>
    </g>
    <g id="ytick_8">
     <g id="line2d_25">
      <defs>
       <path id="m690272b6b2" d="M 0 0 
L -2 0 
" style="stroke: #000000; stroke-width: 0.6"/>
      </defs>
      <g>
       <use xlink:href="#m690272b6b2" x="47.580176" y="148.255909" style="stroke: #000000; stroke-width: 0.6"/>
      </g>
     </g>
    </g>
    <g id="ytick_9">
     <g id="line2d_26">
      <g>
       <use xlink:href="#m690272b6b2" x="47.580176" y="142.491964" style="stroke: #000000; stroke-width: 0.6"/>
      </g>
     </g>
    </g>
    <g id="ytick_10">
     <g id="line2d_27">
      <g>
       <use xlink:href="#m690272b6b2" x="47.580176" y="136.728019" style="stroke: #000000; stroke-width: 0.6"/>
      </g>
     </g>
    </g>
    <g id="ytick_11">
     <g id="line2d_28">
      <g>
       <use xlink:href="#m690272b6b2" x="47.580176" y="125.200129" style="stroke: #000000; stroke-width: 0.6"/>
      </g>
     </g>
    </g>
    <g id="ytick_12">
     <g id="line2d_29">
      <g>
       <use xlink:href="#m690272b6b2" x="47.580176" y="119.436184" style="stroke: #000000; stroke-width: 0.6"/>
      </g>
     </g>
    </g>
    <g id="ytick_13">
     <g id="line2d_30">
      <g>
       <use xlink:href="#m690272b6b2" x="47.580176" y="113.672239" style="stroke: #000000; stroke-width: 0.6"/>
      </g>
     </g>
    </g>
    <g id="ytick_14">
     <g id="line2d_31">
      <g>
       <use xlink:href="#m690272b6b2" x="47.580176" y="102.144349" style="stroke: #000000; stroke-width: 0.6"/>
      </g>
     </g>
    </g>
    <g id="ytick_15">
     <g id="line2d_32">
      <g>
       <use xlink:href="#m690272b6b2" x="47.580176" y="96.380404" style="stroke: #000000; stroke-width: 0.6"/>
      </g>
     </g>
    </g>
    <g id="ytick_16">
     <g id="line2d_33">
      <g>
       <use xlink:href="#m690272b6b2" x="47.580176" y="90.616459" style="stroke: #000000; stroke-width: 0.6"/>
      </g>
     </g>
    </g>
    <g id="ytick_17">
     <g id="line2d_34">
      <g>
       <use xlink:href="#m690272b6b2" x="47.580176" y="79.088569" style="stroke: #000000; stroke-width: 0.6"/>
      </g>
     </g>
    </g>
    <g id="ytick_18">
     <g id="line2d_35">
      <g>
       <use xlink:href="#m690272b6b2" x="47.580176" y="73.324624" style="stroke: #000000; stroke-width: 0.6"/>
      </g>
     </g>
    </g>
    <g id="ytick_19">
     <g id="line2d_36">
      <g>
       <use xlink:href="#m690272b6b2" x="47.580176" y="67.560679" style="stroke: #000000; stroke-width: 0.6"/>
      </g>
     </g>
    </g>
    <g id="ytick_20">
     <g id="line2d_37">
      <g>
       <use xlink:href="#m690272b6b2" x="47.580176" y="56.032789" style="stroke: #000000; stroke-width: 0.6"/>
      </g>
     </g>
    </g>
    <g id="ytick_21">
     <g id="line2d_38">
      <g>
       <use xlink:href="#m690272b6b2" x="47.580176" y="50.268844" style="stroke: #000000; stroke-width: 0.6"/>
      </g>
     </g>
    </g>
    <g id="ytick_22">
     <g id="line2d_39">
      <g>
       <use xlink:href="#m690272b6b2" x="47.580176" y="44.504899" style="stroke: #000000; stroke-width: 0.6"/>
      </g>
     </g>
    </g>
    <g id="ytick_23">
     <g id="line2d_40">
      <g>
       <use xlink:href="#m690272b6b2" x="47.580176" y="32.977008" style="stroke: #000000; stroke-width: 0.6"/>
      </g>
     </g>
    </g>
    <g id="ytick_24">
     <g id="line2d_41">
      <g>
       <use xlink:href="#m690272b6b2" x="47.580176" y="27.213063" style="stroke: #000000; stroke-width: 0.6"/>
      </g>
     </g>
    </g>
    <g id="ytick_25">
     <g id="line2d_42">
      <g>
       <use xlink:href="#m690272b6b2" x="47.580176" y="21.449118" style="stroke: #000000; stroke-width: 0.6"/>
      </g>
     </g>
    </g>
    <g id="text_14">
     <!-- Virtual States -->
     <g transform="translate(19.490347 118.536) rotate(-90) scale(0.11 -0.11)">
      <defs>
       <path id="CMR17-56" d="M 3776 3762 
C 3834 3903 3936 4179 4365 4185 
L 4365 4352 
C 4218 4339 4051 4339 3891 4339 
C 3738 4339 3475 4339 3328 4352 
L 3328 4185 
C 3648 4166 3661 3942 3661 3903 
C 3661 3833 3642 3788 3622 3737 
L 2362 448 
L 1043 3903 
C 1024 3948 1011 3980 1011 4012 
C 1011 4185 1267 4185 1402 4185 
L 1402 4352 
C 1197 4339 896 4339 685 4339 
C 518 4339 218 4339 64 4352 
L 64 4185 
C 435 4185 506 4160 582 3955 
L 2106 -26 
C 2138 -116 2144 -128 2214 -128 
C 2285 -128 2291 -116 2323 -26 
L 3776 3762 
z
" transform="scale(0.015625)"/>
       <path id="CMR17-72" d="M 960 1517 
C 960 2134 1222 2713 1702 2713 
C 1747 2713 1792 2707 1837 2687 
C 1837 2687 1696 2642 1696 2475 
C 1696 2321 1818 2257 1914 2257 
C 1990 2257 2131 2302 2131 2482 
C 2131 2687 1926 2816 1709 2816 
C 1222 2816 1011 2340 947 2115 
L 941 2115 
L 941 2816 
L 198 2745 
L 198 2578 
C 576 2578 634 2540 634 2231 
L 634 443 
C 634 198 608 166 198 166 
L 198 0 
C 352 12 646 12 813 12 
C 998 12 1325 12 1498 0 
L 1498 166 
C 1037 166 960 166 960 455 
L 960 1517 
z
" transform="scale(0.015625)"/>
       <path id="CMR17-74" d="M 966 2585 
L 1862 2585 
L 1862 2752 
L 966 2752 
L 966 3968 
L 851 3968 
C 838 3292 614 2700 70 2687 
L 70 2585 
L 627 2585 
L 627 778 
C 627 655 627 -64 1370 -64 
C 1747 -64 1965 308 1965 784 
L 1965 1151 
L 1850 1151 
L 1850 790 
C 1850 347 1677 51 1408 51 
C 1222 51 966 179 966 765 
L 966 2585 
z
" transform="scale(0.015625)"/>
       <path id="CMR17-75" d="M 1882 2745 
L 1882 2579 
C 2259 2579 2317 2540 2317 2229 
L 2317 1053 
C 2317 510 2029 38 1555 38 
C 1030 38 986 355 986 691 
L 986 2816 
L 211 2745 
L 211 2579 
C 467 2579 640 2579 646 2320 
L 646 1079 
C 646 646 646 368 813 187 
C 896 103 1056 -64 1517 -64 
C 2061 -64 2272 400 2323 536 
L 2330 536 
L 2330 -64 
L 3091 -13 
L 3091 154 
C 2714 154 2656 193 2656 503 
L 2656 2816 
L 1882 2745 
z
" transform="scale(0.015625)"/>
       <path id="CMR17-61" d="M 2304 1656 
C 2304 2048 2304 2275 2035 2534 
C 1798 2751 1523 2816 1306 2816 
C 800 2816 435 2408 435 1977 
C 435 1740 627 1728 666 1728 
C 749 1728 896 1779 896 1958 
C 896 2118 774 2188 666 2188 
C 640 2188 608 2182 589 2176 
C 723 2594 1069 2713 1293 2713 
C 1613 2713 1965 2421 1965 1875 
L 1965 1632 
C 1587 1619 1133 1568 774 1373 
C 371 1147 256 822 256 576 
C 256 77 832 -64 1171 -64 
C 1523 -64 1850 135 1990 505 
C 2003 219 2182 -39 2464 -39 
C 2598 -39 2938 51 2938 563 
L 2938 926 
L 2822 926 
L 2822 557 
C 2822 161 2650 109 2566 109 
C 2304 109 2304 446 2304 732 
L 2304 1656 
z
M 1965 887 
C 1965 323 1568 38 1216 38 
C 896 38 646 278 646 576 
C 646 771 730 1114 1101 1322 
C 1408 1497 1760 1523 1965 1536 
L 1965 887 
z
" transform="scale(0.015625)"/>
       <path id="CMR17-6c" d="M 979 4416 
L 218 4345 
L 218 4179 
C 595 4179 653 4141 653 3835 
L 653 439 
C 653 198 627 166 218 166 
L 218 0 
C 371 12 653 12 813 12 
C 979 12 1261 12 1414 0 
L 1414 166 
C 1005 166 979 191 979 439 
L 979 4416 
z
" transform="scale(0.015625)"/>
       <path id="CMR17-53" d="M 2803 4351 
C 2803 4467 2797 4473 2758 4473 
C 2720 4473 2707 4447 2682 4390 
L 2490 3965 
C 2246 4320 1875 4480 1472 4480 
C 819 4480 294 3958 294 3301 
C 294 3101 339 2817 557 2546 
C 794 2250 1018 2198 1530 2063 
C 1722 2011 2042 1927 2106 1901 
C 2470 1747 2662 1360 2662 999 
C 2662 534 2336 38 1779 38 
C 1094 38 454 425 410 1328 
C 403 1431 397 1437 352 1437 
C 301 1437 294 1431 294 1302 
L 294 0 
C 294 -116 301 -122 339 -122 
C 384 -122 397 -90 486 109 
C 493 128 493 141 614 386 
C 934 -39 1472 -128 1779 -128 
C 2477 -128 2970 457 2970 1141 
C 2970 1476 2848 1734 2778 1850 
C 2509 2263 2221 2340 1914 2417 
C 1869 2437 1856 2437 1498 2527 
C 1152 2617 1005 2662 845 2836 
C 666 3036 602 3243 602 3449 
C 602 3868 934 4326 1478 4326 
C 2157 4326 2579 3842 2675 3036 
C 2694 2920 2701 2914 2746 2914 
C 2803 2914 2803 2933 2803 3043 
L 2803 4351 
z
" transform="scale(0.015625)"/>
      </defs>
      <use xlink:href="#CMR17-56" transform="scale(0.996264)"/>
      <use xlink:href="#CMR17-69" transform="translate(69.07243 0) scale(0.996264)"/>
      <use xlink:href="#CMR17-72" transform="translate(93.943488 0) scale(0.996264)"/>
      <use xlink:href="#CMR17-74" transform="translate(129.224256 0) scale(0.996264)"/>
      <use xlink:href="#CMR17-75" transform="translate(164.505024 0) scale(0.996264)"/>
      <use xlink:href="#CMR17-61" transform="translate(215.400394 0) scale(0.996264)"/>
      <use xlink:href="#CMR17-6c" transform="translate(261.090871 0) scale(0.996264)"/>
      <use xlink:href="#CMR17-53" transform="translate(316.037896 0) scale(0.996264)"/>
      <use xlink:href="#CMR17-74" transform="translate(366.933265 0) scale(0.996264)"/>
      <use xlink:href="#CMR17-61" transform="translate(402.214033 0) scale(0.996264)"/>
      <use xlink:href="#CMR17-74" transform="translate(447.90451 0) scale(0.996264)"/>
      <use xlink:href="#CMR17-65" transform="translate(483.185278 0) scale(0.996264)"/>
      <use xlink:href="#CMR17-73" transform="translate(523.670939 0) scale(0.996264)"/>
     </g>
    </g>
   </g>
   <g id="line2d_43">
    <path d="M 47.580176 110.437346 
L 47.716404 110.437346 
L 47.997868 117.963973 
L 48.166859 118.732397 
L 48.223152 118.753255 
L 48.335737 118.34113 
L 48.673606 112.707595 
L 49.421287 91.783962 
L 49.977347 79.145753 
L 50.29799 74.954533 
L 50.761617 70.099162 
L 50.986901 68.943437 
L 51.478449 67.740913 
L 51.534855 67.85278 
L 51.703733 68.322608 
L 52.109829 70.291102 
L 53.743332 79.217998 
L 54.228576 79.759987 
L 54.491801 79.608383 
L 54.919288 78.783523 
L 56.338653 75.424631 
L 56.700391 75.14645 
L 57.03826 75.099891 
L 57.376129 75.251977 
L 58.514256 76.298666 
L 59.133701 76.726107 
L 59.658012 76.837659 
L 60.33375 76.709436 
L 62.348693 76.178788 
L 63.32222 76.254837 
L 65.448848 76.429983 
L 72.301816 76.361847 
L 88.96875 76.361748 
L 351.602722 76.361748 
L 351.602722 76.361748 
" clip-path="url(#pb34749ab4b)" style="fill: none; stroke: #30123b; stroke-linecap: square"/>
   </g>
   <g id="line2d_44">
    <path d="M 47.580176 106.492789 
L 47.642098 74.644572 
L 47.698841 77.593294 
L 47.867832 82.347075 
L 47.924125 82.16576 
L 48.149633 74.767622 
L 48.656944 57.806862 
L 48.769642 57.125497 
L 48.826047 57.233936 
L 48.995038 58.998736 
L 49.389538 67.388338 
L 50.178537 86.078103 
L 50.460338 88.708346 
L 50.685735 89.196514 
L 50.79832 89.000544 
L 51.023716 87.98624 
L 51.420017 84.87079 
L 52.885656 72.886314 
L 53.223863 71.974686 
L 53.449371 71.822447 
L 53.674993 71.984569 
L 54.013087 72.600679 
L 54.463992 74.051546 
L 55.309509 77.00085 
L 55.760302 77.864751 
L 56.098283 78.106907 
L 56.436603 78.048667 
L 56.830765 77.730518 
L 57.450548 76.859946 
L 58.183254 75.996015 
L 58.633934 75.745889 
L 59.141019 75.723258 
L 59.760352 75.952422 
L 61.22554 76.567971 
L 61.958585 76.60012 
L 63.367142 76.357256 
L 64.55019 76.263472 
L 81.618605 76.361512 
L 351.614881 76.361748 
L 351.614881 76.361748 
" clip-path="url(#pb34749ab4b)" style="fill: none; stroke: #466be3; stroke-linecap: square"/>
   </g>
   <g id="line2d_45">
    <path d="M 47.580176 151.953428 
L 47.657747 40.828977 
L 47.714153 43.238677 
L 48.052134 52.674363 
L 48.615625 61.365493 
L 48.953607 63.897149 
L 49.122485 64.332763 
L 49.347994 64.423649 
L 49.911259 64.159803 
L 50.080137 64.592855 
L 50.361939 66.197119 
L 50.812393 70.704843 
L 51.826113 80.909031 
L 52.164095 82.566968 
L 52.389491 82.965757 
L 52.558482 82.924557 
L 52.783766 82.518049 
L 53.06523 81.625314 
L 53.572202 79.1232 
L 54.304346 75.552815 
L 54.7548 74.299751 
L 55.092782 73.897918 
L 55.374358 73.896001 
L 55.655935 74.162774 
L 56.050322 74.840789 
L 57.176402 76.822639 
L 57.683375 77.224753 
L 58.077537 77.269642 
L 58.584397 77.06912 
L 60.443183 76.04154 
L 61.119485 76.052402 
L 62.415006 76.374971 
L 63.429064 76.496913 
L 64.78054 76.39242 
L 66.639102 76.316189 
L 72.327598 76.356063 
L 96.543841 76.361748 
L 351.595629 76.361748 
L 351.595629 76.361748 
" clip-path="url(#pb34749ab4b)" style="fill: none; stroke: #28bceb; stroke-linecap: square"/>
   </g>
   <g id="line2d_46">
    <path d="M 47.580176 132.637129 
L 47.806248 127.649095 
L 49.101431 82.335685 
L 49.551886 73.805337 
L 50.002453 69.102096 
L 50.397403 67.108989 
L 50.634171 66.720053 
L 50.885236 66.704988 
L 50.997934 67.004845 
L 51.38005 68.457215 
L 51.925301 72.558711 
L 52.359431 75.623622 
L 53.138748 79.890821 
L 53.439576 80.569319 
L 53.66486 80.571324 
L 54.002729 80.035227 
L 54.653699 78.138751 
L 55.330563 76.016253 
L 55.760639 75.121409 
L 56.098959 74.830724 
L 56.434238 74.799447 
L 56.884806 75.115143 
L 58.714658 76.902318 
L 59.165225 76.956419 
L 59.784108 76.774173 
L 61.248283 76.189784 
L 62.08772 76.141954 
L 63.270318 76.32983 
L 64.56325 76.451477 
L 66.871028 76.334382 
L 69.75637 76.373547 
L 85.926014 76.361768 
L 351.584146 76.361768 
L 351.584146 76.361768 
" clip-path="url(#pb34749ab4b)" style="fill: none; stroke: #32f298; stroke-linecap: square"/>
   </g>
   <g id="line2d_47">
    <path d="M 47.580176 111.429013 
L 48.204913 47.416684 
L 48.374129 44.411792 
L 48.48694 46.457995 
L 48.768516 58.209868 
L 49.44493 86.098804 
L 49.783024 92.469002 
L 50.008308 93.639757 
L 50.121006 93.529071 
L 50.289997 92.654342 
L 50.628091 89.238265 
L 51.980468 73.752497 
L 52.37508 71.54293 
L 52.656544 70.853112 
L 52.825422 70.76825 
L 53.051269 70.920307 
L 53.389588 71.759961 
L 53.896786 73.818564 
L 54.798371 77.433518 
L 55.192983 78.285931 
L 55.531303 78.543944 
L 55.813217 78.47231 
L 56.151424 78.117272 
L 56.883455 76.885672 
L 57.615711 75.867408 
L 58.066616 75.580418 
L 58.517408 75.566299 
L 59.080899 75.805439 
L 60.657997 76.629235 
L 61.334073 76.661951 
L 62.404873 76.435402 
L 63.644215 76.24423 
L 64.939286 76.312411 
L 66.967514 76.404209 
L 73.671981 76.36195 
L 99.132408 76.361748 
L 351.567933 76.361748 
L 351.567933 76.361748 
" clip-path="url(#pb34749ab4b)" style="fill: none; stroke: #a4fc3c; stroke-linecap: square"/>
   </g>
   <g id="line2d_48">
    <path d="M 47.580176 107.760997 
L 47.652005 55.355786 
L 47.708411 57.284663 
L 48.159091 70.216439 
L 48.215383 70.67156 
L 48.271789 70.591857 
L 48.440892 69.089519 
L 49.060675 61.817255 
L 49.173261 61.780666 
L 49.285959 62.189535 
L 49.567648 64.559656 
L 49.90563 70.1929 
L 50.581818 82.450169 
L 50.9198 85.518449 
L 51.201376 86.481119 
L 51.313962 86.487774 
L 51.483178 86.167073 
L 51.764754 84.956627 
L 52.158804 82.103535 
L 53.116456 74.963361 
L 53.566911 73.205759 
L 53.90478 72.66848 
L 54.130063 72.630207 
L 54.355234 72.823326 
L 54.749509 73.744797 
L 56.045143 77.17715 
L 56.49571 77.696595 
L 56.833467 77.771057 
L 57.171448 77.622892 
L 57.847187 76.969932 
L 58.804839 76.048609 
L 59.311812 75.848614 
L 59.87519 75.872886 
L 60.776437 76.206218 
L 61.733639 76.520303 
L 62.578706 76.553487 
L 66.521788 76.353605 
L 68.662376 76.378828 
L 73.899742 76.365049 
L 112.425379 76.361748 
L 351.603398 76.361748 
L 351.603398 76.361748 
" clip-path="url(#pb34749ab4b)" style="fill: none; stroke: #eecf3a; stroke-linecap: square"/>
   </g>
   <g id="line2d_49">
    <path d="M 47.580176 106.384316 
L 47.998318 106.384316 
L 48.397884 81.255388 
L 48.802517 71.46567 
L 49.270197 67.375396 
L 49.734725 65.535952 
L 49.966651 65.160948 
L 50.141159 65.208527 
L 50.372409 65.727401 
L 50.722663 66.896889 
L 51.128196 70.828115 
L 51.708349 74.798993 
L 52.349749 80.133986 
L 52.580887 81.061191 
L 52.984506 81.750103 
L 53.27689 81.395839 
L 53.794784 79.608442 
L 54.49135 76.521934 
L 54.951938 75.135646 
L 55.416128 74.457523 
L 55.706148 74.399116 
L 55.936723 74.549986 
L 56.283149 74.911344 
L 57.098943 76.071029 
L 57.503463 76.593918 
L 57.908996 76.965454 
L 58.428353 77.111166 
L 58.950187 76.975937 
L 60.394434 76.205233 
L 61.321913 76.087867 
L 62.550897 76.298701 
L 63.652434 76.465517 
L 65.156914 76.394642 
L 67.069629 76.323012 
L 72.696991 76.35699 
L 101.542413 76.361773 
L 351.749759 76.361773 
L 351.749759 76.361773 
" clip-path="url(#pb34749ab4b)" style="fill: none; stroke: #fb7e21; stroke-linecap: square"/>
   </g>
   <g id="line2d_50">
    <path d="M 47.580176 151.780272 
L 47.697265 63.968985 
L 47.866368 62.752716 
L 47.922774 62.821873 
L 48.092327 63.960399 
L 48.486714 67.092269 
L 48.599413 67.237779 
L 48.712561 67.02358 
L 48.994475 65.528671 
L 49.388862 63.747275 
L 49.557853 63.65828 
L 49.726844 64.127141 
L 49.95269 65.697089 
L 50.347303 70.710686 
L 51.192932 81.833088 
L 51.586982 84.164153 
L 51.812716 84.569923 
L 51.981707 84.483603 
L 52.207215 83.88174 
L 52.60149 81.864148 
L 53.897124 74.497352 
L 54.291511 73.533372 
L 54.573087 73.299143 
L 54.798484 73.380522 
L 55.080398 73.750107 
L 55.531866 74.786397 
L 56.602554 76.991416 
L 57.053008 77.426512 
L 57.334585 77.496496 
L 57.842346 77.328872 
L 58.518872 76.775307 
L 59.420119 76.094277 
L 59.983609 75.937111 
L 60.60328 75.995813 
L 63.138593 76.518505 
L 67.194937 76.359945 
L 69.674182 76.36733 
L 76.097299 76.360674 
L 190.631218 76.361748 
L 351.567258 76.361748 
L 351.567258 76.361748 
" clip-path="url(#pb34749ab4b)" style="fill: none; stroke: #d02f05; stroke-linecap: square"/>
   </g>
   <g id="line2d_51">
    <path d="M 47.580176 123.655821 
L 48.128918 17.054824 
L 48.185323 26.968435 
L 48.579597 74.712511 
L 48.917579 93.866015 
L 49.199381 100.243484 
L 49.368259 101.087113 
L 49.480845 100.719193 
L 49.706016 98.247628 
L 50.156583 90.41001 
L 50.832208 78.908504 
L 51.338843 73.20066 
L 51.789523 70.223651 
L 52.071212 69.497801 
L 52.239978 69.472878 
L 52.465149 69.792658 
L 52.859423 71.161433 
L 53.366396 73.668679 
L 54.154945 77.607802 
L 54.549219 78.710154 
L 54.887088 79.084661 
L 55.112485 79.04426 
L 55.450579 78.678419 
L 55.957439 77.691792 
L 56.858686 75.919775 
L 57.309366 75.456549 
L 57.703865 75.341977 
L 58.098027 75.448982 
L 59.281301 76.31211 
L 60.013332 76.685775 
L 60.633228 76.741393 
L 61.590768 76.510776 
L 62.942582 76.221367 
L 64.012595 76.263236 
L 66.265431 76.416204 
L 73.137313 76.361532 
L 95.329269 76.361748 
L 351.567145 76.361748 
L 351.567145 76.361748 
" clip-path="url(#pb34749ab4b)" style="fill: none; stroke: #7a0403; stroke-linecap: square"/>
   </g>
   <g id="line2d_52">
    <path d="M 47.580176 78.197274 
L 351.602722 78.197274 
L 351.602722 78.197274 
" clip-path="url(#pb34749ab4b)" style="fill: none; stroke-dasharray: 9.6,2.4,1.5,2.4; stroke-dashoffset: 0; stroke: #000000; stroke-width: 1.5"/>
   </g>
   <g id="patch_3">
    <path d="M 47.580176 154.019855 
L 47.580176 15.685173 
" style="fill: none; stroke: #000000; stroke-linejoin: miter; stroke-linecap: square"/>
   </g>
   <g id="patch_4">
    <path d="M 351.561065 154.019855 
L 351.561065 15.685173 
" style="fill: none; stroke: #000000; stroke-linejoin: miter; stroke-linecap: square"/>
   </g>
   <g id="patch_5">
    <path d="M 47.580176 154.019855 
L 351.561065 154.019855 
" style="fill: none; stroke: #000000; stroke-linejoin: miter; stroke-linecap: square"/>
   </g>
   <g id="patch_6">
    <path d="M 47.580176 15.685173 
L 351.561065 15.685173 
" style="fill: none; stroke: #000000; stroke-linejoin: miter; stroke-linecap: square"/>
   </g>
   <g id="legend_1">
    <g id="patch_7">
     <path d="M 309.508543 35.428635 
L 347.061065 35.428635 
L 347.061065 20.185173 
L 309.508543 20.185173 
z
" style="fill: #ffffff; stroke: #000000; stroke-linejoin: miter"/>
    </g>
    <g id="line2d_53">
     <path d="M 313.108543 26.935173 
L 322.108543 26.935173 
L 331.108543 26.935173 
" style="fill: none; stroke-dasharray: 9.6,2.4,1.5,2.4; stroke-dashoffset: 0; stroke: #000000; stroke-width: 1.5"/>
    </g>
    <g id="text_15">
     <!-- $\bar{z}$ -->
     <g transform="translate(338.308543 30.085173) scale(0.09 -0.09)">
      <defs>
       <path id="CMR17-16" d="M 2554 3520 
L 2554 3667 
L 378 3667 
L 378 3520 
L 2554 3520 
z
" transform="scale(0.015625)"/>
       <path id="CMMI12-7a" d="M 813 486 
C 1088 809 1312 1015 1632 1313 
C 2016 1657 2182 1822 2272 1922 
C 2720 2371 2944 2713 2944 2764 
C 2944 2816 2893 2816 2880 2816 
C 2835 2816 2822 2790 2790 2745 
C 2630 2470 2477 2368 2310 2368 
C 2176 2368 2106 2403 1984 2547 
C 1850 2707 1741 2816 1555 2816 
C 1088 2816 806 2265 806 2127 
C 806 2107 813 2067 870 2067 
C 922 2067 928 2094 947 2140 
C 1056 2387 1363 2415 1485 2415 
C 1619 2415 1747 2387 1882 2342 
C 2125 2239 2227 2239 2291 2239 
C 2336 2239 2362 2239 2394 2246 
C 2182 1988 1837 1670 1549 1399 
L 902 783 
C 512 380 275 32 275 -13 
C 275 -52 307 -64 346 -64 
C 384 -64 390 -58 435 19 
C 538 179 742 384 979 384 
C 1114 384 1178 356 1306 211 
C 1427 70 1536 -64 1741 -64 
C 2368 -64 2726 723 2726 876 
C 2726 902 2720 942 2656 942 
C 2605 942 2598 915 2579 849 
C 2438 460 2061 336 1811 336 
C 1677 336 1549 364 1414 409 
C 1158 512 1088 512 1005 512 
C 941 512 870 512 813 486 
z
" transform="scale(0.015625)"/>
      </defs>
      <use xlink:href="#CMR17-16" transform="translate(7.451777 0.006461) scale(0.996264)"/>
      <use xlink:href="#CMMI12-7a" transform="scale(0.996264)"/>
     </g>
    </g>
   </g>
  </g>
 </g>
 <defs>
  <clipPath id="pb34749ab4b">
   <rect x="47.580176" y="15.685173" width="303.98089" height="138.334681"/>
  </clipPath>
 </defs>
</svg>
